<?xml version="1.0" encoding="UTF-8" standalone="no"?>
<svg width="460px" height="670px" viewBox="0 0 460 670" version="1.1" xmlns="http://www.w3.org/2000/svg" xmlns:xlink="http://www.w3.org/1999/xlink">
    <!-- Generator: Sketch 3.8.1 (29687) - http://www.bohemiancoding.com/sketch -->
    <title>beer-1</title>
    <desc>Created with Sketch.</desc>
    <defs>
        <linearGradient x1="50%" y1="0%" x2="50%" y2="96.8032526%" id="linearGradient-1">
            <stop stop-color="#FCE8BE" offset="0%"></stop>
            <stop stop-color="#FFDBA0" offset="100%"></stop>
        </linearGradient>
    </defs>
    <g id="Page-1" stroke="none" stroke-width="1" fill="none" fill-rule="evenodd">
        <g id="beer-1" transform="translate(-490.000000, -276.000000)">
            <g transform="translate(490.000000, 276.000000)">
                <g id="Group-2-Copy" transform="translate(130.000000, 0.000000)">
                    <path d="M10.1443396,642.078526 C9.93194526,643.15375 10.6626969,644.025391 11.7624547,644.025391 L187.454342,644.025391 C188.560397,644.025391 189.437336,643.132691 189.320301,642.035063 C189.320301,642.035063 190.224609,629.037109 170.224609,629.037109 C150.224609,629.037109 120.000005,624 120,604 C119.999995,584 145,588 150,544 C155,500 200,4 200,4 L4.4623194e-12,4 C4.4623194e-12,4 44,500 50,544 C56,588 80,584 80,604 C80,624 50.0175781,628.673828 30,629 C10.9433594,629.400391 10.1443396,642.078526 10.1443396,642.078526 Z" id="Path-460" fill="#F1EAE3"></path>
                    <path d="M99.9999928,588.823229 C108.309438,588.823229 136.302285,582.114868 140.277353,547.134264 C144.252422,512.153661 188.760151,5 188.760151,5 L11.2398286,5 C11.2398286,5 56.0058998,512.153661 60.7759821,547.134264 C65.5460644,582.114868 91.6905475,588.823229 99.9999928,588.823229 Z" id="Path-460-Copy" stroke="#D1D1D1" stroke-linejoin="round" opacity="0.7"></path>
                    <path d="M100.000001,588.823229 C108.238282,588.823229 113.792969,588.82323 124.005859,579 C95.3195379,578.956169 100.589258,578.956169 76.5,578.956169 C87.3066406,588.82323 91.7617199,588.823229 100.000001,588.823229 Z" id="Path-460-Copy-2" fill="url(#linearGradient-1)"></path>
                    <ellipse id="Oval-13-Copy" fill="#FFF8F0" cx="100" cy="4" rx="100" ry="4"></ellipse>
                </g>
                <rect id="plate" fill="#A3998C" x="0" y="644" width="460" height="26" rx="13"></rect>
            </g>
        </g>
    </g>
</svg>