<?xml version="1.0" encoding="UTF-8" standalone="no"?>
<svg width="460px" height="721px" viewBox="0 0 460 721" version="1.1" xmlns="http://www.w3.org/2000/svg" xmlns:xlink="http://www.w3.org/1999/xlink">
    <!-- Generator: Sketch 3.8.1 (29687) - http://www.bohemiancoding.com/sketch -->
    <title>beer-6</title>
    <desc>Created with Sketch.</desc>
    <defs>
        <linearGradient x1="50%" y1="0%" x2="50%" y2="96.8032526%" id="linearGradient-1">
            <stop stop-color="#FCE8BE" offset="0%"></stop>
            <stop stop-color="#FFDBA0" offset="100%"></stop>
        </linearGradient>
        <radialGradient cx="50%" cy="50%" fx="50%" fy="50%" r="58.3528646%" id="radialGradient-2">
            <stop stop-color="#FFFFFF" offset="0%"></stop>
            <stop stop-color="#FFFFFF" stop-opacity="0" offset="100%"></stop>
        </radialGradient>
    </defs>
    <g id="Page-1" stroke="none" stroke-width="1" fill="none" fill-rule="evenodd">
        <g id="beer-6" transform="translate(-490.000000, -225.000000)">
            <g transform="translate(490.000000, 225.000000)">
                <g id="Group-2-Copy" transform="translate(130.000000, 52.000000)">
                    <path d="M10.1443396,641.078526 C9.93194526,642.15375 10.6626969,643.025391 11.7624547,643.025391 L187.454342,643.025391 C188.560397,643.025391 189.437336,642.132691 189.320301,641.035063 C189.320301,641.035063 190.224609,628.037109 170.224609,628.037109 C150.224609,628.037109 120.000005,623 120,603 C119.999995,583 145,587 150,543 C155,499 199.638691,6.98080447 199.638691,6.98080447 C199.838237,4.78226687 198.209897,3 196.004924,3 L3.99507582,3 C1.78865637,3 0.158489914,4.7855972 0.353441242,6.98080447 C0.353441242,6.98080447 44,499 50,543 C56,587 80,583 80,603 C80,623 50.0175781,627.673828 30,628 C10.9433594,628.400391 10.1443396,641.078526 10.1443396,641.078526 Z" id="Path-460" fill="#F1EAE3"></path>
                    <path d="M99.9999928,587.823229 C108.309438,587.823229 136.302285,581.114868 140.277353,546.134264 C144.252422,511.153661 188.760151,4 188.760151,4 L11.2398286,4 C11.2398286,4 56.0058998,511.153661 60.7759821,546.134264 C65.5460644,581.114868 91.6905475,587.823229 99.9999928,587.823229 Z" id="Path-460-Copy" stroke="#D1D1D1" stroke-linejoin="round" opacity="0.7"></path>
                    <path d="M100.000001,587.823229 C108.238282,587.823229 135.991392,581.17232 139.932417,546.491298 C143.873442,511.810277 187.650669,12.9790254 187.650669,12.9790254 C187.843597,10.7814704 186.200734,9.00000005 183.993307,9.00000005 L16.006689,9.00000005 C13.7938558,9.00000005 12.1576167,10.7848402 12.3514635,12.9790254 C12.3514635,12.9790254 56.382684,511.810277 61.1119141,546.491298 C65.8411443,581.17232 91.7617199,587.823229 100.000001,587.823229 Z" id="Path-460-Copy" fill="url(#linearGradient-1)"></path>
                    <ellipse id="Oval-13-Copy" fill="#FFF8F0" cx="99.5" cy="4" rx="99.5" ry="4"></ellipse>
                </g>
                <rect id="plate" fill="#A3998C" x="0" y="695" width="460" height="26" rx="13"></rect>
                <path d="M131.319848,62.3310205 C120.789964,56.621514 130.585633,19.8036187 149.083173,14.687583 C163.74239,9.57154728 162.389362,11.1834101 184.639927,9.57154719 C206.890492,7.95968429 229.522381,-5.12501637 255.121242,2.22326543 C280.720103,9.57154722 329.064569,14.3136527 334.456623,42.4518504 C339.848677,70.590048 329.380671,63.8748962 329.380671,63.8748962 C329.380671,63.8748962 138.505859,62.3310204 131.319848,62.3310205 Z" id="foam" fill="#FFFFFF"></path>
                <path d="M142.02846,62.4603796 C142.02846,62.4603796 200.960938,55.1269531 230,55.1269531 C259.627604,55.1269531 318,63.8359375 318,63.8359375 L317,74 L230.564944,70 L143.5,74 L142.02846,62.4603796 Z" id="foam-2" fill="#FFF1D5"></path>
                <g id="Group-3" opacity="0.778451493" transform="translate(181.000000, 60.000000)" fill="url(#radialGradient-2)">
                    <path d="M30.5,149 C35.7467051,149 40,144.746705 40,139.5 C40,134.253295 35.7467051,130 30.5,130 C25.2532949,130 21,134.253295 21,139.5 C21,144.746705 25.2532949,149 30.5,149 Z" id="Oval-8"></path>
                    <path d="M30.5,488 C35.7467051,488 40,483.746705 40,478.5 C40,473.253295 35.7467051,469 30.5,469 C25.2532949,469 21,473.253295 21,478.5 C21,483.746705 25.2532949,488 30.5,488 Z" id="Oval-8-Copy-5"></path>
                    <path d="M12,64 C18.627417,64 24,58.627417 24,52 C24,45.372583 18.627417,40 12,40 C5.372583,40 0,45.372583 0,52 C0,58.627417 5.372583,64 12,64 Z" id="Oval-8-Copy-2"></path>
                    <path d="M96,24 C102.627417,24 108,18.627417 108,12 C108,5.372583 102.627417,0 96,0 C89.372583,0 84,5.372583 84,12 C84,18.627417 89.372583,24 96,24 Z" id="Oval-8-Copy-7"></path>
                    <path d="M77,95 C80.8659932,95 84,91.8659932 84,88 C84,84.1340068 80.8659932,81 77,81 C73.1340068,81 70,84.1340068 70,88 C70,91.8659932 73.1340068,95 77,95 Z" id="Oval-8-Copy"></path>
                    <path d="M74,555 C77.8659932,555 81,551.865993 81,548 C81,544.134007 77.8659932,541 74,541 C70.1340068,541 67,544.134007 67,548 C67,551.865993 70.1340068,555 74,555 Z" id="Oval-8-Copy-6"></path>
                    <path d="M15,328 C18.8659932,328 22,324.865993 22,321 C22,317.134007 18.8659932,314 15,314 C11.1340068,314 8,317.134007 8,321 C8,324.865993 11.1340068,328 15,328 Z" id="Oval-8-Copy-3"></path>
                    <path d="M67,389 C70.8659932,389 74,385.865993 74,382 C74,378.134007 70.8659932,375 67,375 C63.1340068,375 60,378.134007 60,382 C60,385.865993 63.1340068,389 67,389 Z" id="Oval-8-Copy-4"></path>
                </g>
            </g>
        </g>
    </g>
</svg>