<?xml version="1.0" encoding="UTF-8" standalone="no"?>
<svg width="460px" height="669px" viewBox="0 0 460 669" version="1.1" xmlns="http://www.w3.org/2000/svg" xmlns:xlink="http://www.w3.org/1999/xlink">
    <!-- Generator: Sketch 3.8.1 (29687) - http://www.bohemiancoding.com/sketch -->
    <title>beer-2</title>
    <desc>Created with Sketch.</desc>
    <defs>
        <linearGradient x1="50%" y1="0%" x2="50%" y2="96.8032526%" id="linearGradient-1">
            <stop stop-color="#FCE8BE" offset="0%"></stop>
            <stop stop-color="#FFDBA0" offset="100%"></stop>
        </linearGradient>
        <radialGradient cx="50%" cy="50%" fx="50%" fy="50%" r="58.3528646%" id="radialGradient-2">
            <stop stop-color="#FFFFFF" offset="0%"></stop>
            <stop stop-color="#FFFFFF" stop-opacity="0" offset="100%"></stop>
        </radialGradient>
    </defs>
    <g id="Page-1" stroke="none" stroke-width="1" fill="none" fill-rule="evenodd">
        <g id="beer-2" transform="translate(-490.000000, -277.000000)">
            <g transform="translate(490.000000, 277.000000)">
                <g id="Group-2-Copy" transform="translate(130.000000, 0.000000)">
                    <path d="M10.1443396,641.078526 C9.93194526,642.15375 10.6626969,643.025391 11.7624547,643.025391 L187.454342,643.025391 C188.560397,643.025391 189.437336,642.132691 189.320301,641.035063 C189.320301,641.035063 190.224609,628.037109 170.224609,628.037109 C150.224609,628.037109 120.000005,623 120,603 C119.999995,583 145,587 150,543 C155,499 199.638691,6.98080447 199.638691,6.98080447 C199.838237,4.78226687 198.209897,3 196.004924,3 L3.99507582,3 C1.78865637,3 0.158489914,4.7855972 0.353441242,6.98080447 C0.353441242,6.98080447 44,499 50,543 C56,587 80,583 80,603 C80,623 50.0175781,627.673828 30,628 C10.9433594,628.400391 10.1443396,641.078526 10.1443396,641.078526 Z" id="Path-460" fill="#F1EAE3"></path>
                    <path d="M99.9999928,587.823229 C108.309438,587.823229 136.302285,581.114868 140.277353,546.134264 C144.252422,511.153661 188.760151,4 188.760151,4 L11.2398286,4 C11.2398286,4 56.0058998,511.153661 60.7759821,546.134264 C65.5460644,581.114868 91.6905475,587.823229 99.9999928,587.823229 Z" id="Path-460-Copy" stroke="#D1D1D1" stroke-linejoin="round" opacity="0.7"></path>
                    <path d="M100.000001,587.823229 C108.238282,587.823229 135.991392,581.17232 139.932417,546.491298 C143.873442,511.810277 146,471.999992 146,471.999992 L54,471.999992 C54,471.999992 56.382684,511.810277 61.1119141,546.491298 C65.8411443,581.17232 91.7617199,587.823229 100.000001,587.823229 Z" id="Path-460-Copy" fill="url(#linearGradient-1)"></path>
                    <ellipse id="Oval-13-Copy" fill="#FFF8F0" cx="99.5" cy="4" rx="99.5" ry="4"></ellipse>
                </g>
                <rect id="plate" fill="#A3998C" x="0" y="643" width="460" height="26" rx="13"></rect>
                <path d="M184.985366,472 C180.325011,470.799683 185.086943,461.16334 193.273653,460.087789 C199.761584,459.012238 199.162756,459.351102 209.010494,459.012238 C218.858232,458.673374 228.874738,455.922561 240.204377,457.4674 C251.534017,459.012238 272.930491,460.009177 275.316926,465.924706 C277.703362,471.840234 276,472 276,472 C276,472 188.165778,472 184.985366,472 Z" id="foam" fill="#FFFFFF"></path>
                <path d="M183.375,470.503482 C183.375,470.503482 214.604218,467.25 229.992459,467.25 C245.692578,467.25 276.625,471.11375 276.625,471.11375 L276.203957,475.623047 L230.291832,473.848443 L183.820132,475.623047 L183.375,470.503482 Z" id="foam-2" fill="#FFF1D5"></path>
                <path d="M238.5,496 C243.746705,496 248,491.746705 248,486.5 C248,481.253295 243.746705,477 238.5,477 C233.253295,477 229,481.253295 229,486.5 C229,491.746705 233.253295,496 238.5,496 Z" id="Oval-8-Copy-5" fill="url(#radialGradient-2)"></path>
                <path d="M255,563 C258.865993,563 262,559.865993 262,556 C262,552.134007 258.865993,549 255,549 C251.134007,549 248,552.134007 248,556 C248,559.865993 251.134007,563 255,563 Z" id="Oval-8-Copy-6" fill="url(#radialGradient-2)"></path>
                <path d="M219,534 C222.865993,534 226,530.865993 226,527 C226,523.134007 222.865993,520 219,520 C215.134007,520 212,523.134007 212,527 C212,530.865993 215.134007,534 219,534 Z" id="Oval-8-Copy-7" fill="url(#radialGradient-2)"></path>
            </g>
        </g>
    </g>
</svg>