<?xml version="1.0" encoding="UTF-8" standalone="no"?>
<svg width="460px" height="669px" viewBox="0 0 460 669" version="1.1" xmlns="http://www.w3.org/2000/svg" xmlns:xlink="http://www.w3.org/1999/xlink">
    <!-- Generator: Sketch 3.8.1 (29687) - http://www.bohemiancoding.com/sketch -->
    <title>beer-3</title>
    <desc>Created with Sketch.</desc>
    <defs>
        <linearGradient x1="50%" y1="0%" x2="50%" y2="96.8032526%" id="linearGradient-1">
            <stop stop-color="#FCE8BE" offset="0%"></stop>
            <stop stop-color="#FFDBA0" offset="100%"></stop>
        </linearGradient>
        <radialGradient cx="50%" cy="50%" fx="50%" fy="50%" r="58.3528646%" id="radialGradient-2">
            <stop stop-color="#FFFFFF" offset="0%"></stop>
            <stop stop-color="#FFFFFF" stop-opacity="0" offset="100%"></stop>
        </radialGradient>
    </defs>
    <g id="Page-1" stroke="none" stroke-width="1" fill="none" fill-rule="evenodd">
        <g id="beer-3" transform="translate(-490.000000, -277.000000)">
            <g transform="translate(490.000000, 277.000000)">
                <g id="Group-2-Copy" transform="translate(130.000000, 0.000000)">
                    <path d="M10.1443396,641.078526 C9.93194526,642.15375 10.6626969,643.025391 11.7624547,643.025391 L187.454342,643.025391 C188.560397,643.025391 189.437336,642.132691 189.320301,641.035063 C189.320301,641.035063 190.224609,628.037109 170.224609,628.037109 C150.224609,628.037109 120.000005,623 120,603 C119.999995,583 145,587 150,543 C155,499 199.638691,6.98080447 199.638691,6.98080447 C199.838237,4.78226687 198.209897,3 196.004924,3 L3.99507582,3 C1.78865637,3 0.158489914,4.7855972 0.353441242,6.98080447 C0.353441242,6.98080447 44,499 50,543 C56,587 80,583 80,603 C80,623 50.0175781,627.673828 30,628 C10.9433594,628.400391 10.1443396,641.078526 10.1443396,641.078526 Z" id="Path-460" fill="#F1EAE3"></path>
                    <path d="M99.9999928,587.823229 C108.309438,587.823229 136.302285,581.114868 140.277353,546.134264 C144.252422,511.153661 188.760151,4 188.760151,4 L11.2398286,4 C11.2398286,4 56.0058998,511.153661 60.7759821,546.134264 C65.5460644,581.114868 91.6905475,587.823229 99.9999928,587.823229 Z" id="Path-460-Copy" stroke="#D1D1D1" stroke-linejoin="round" opacity="0.7"></path>
                    <path d="M100.000001,587.823229 C108.238282,587.823229 135.991392,581.17232 139.932417,546.491298 C143.873442,511.810277 156.665607,358.984125 156.665607,358.984125 C156.850288,356.783747 155.209333,354.999988 153.009524,354.999988 L46.9904763,354.999988 C44.7865971,354.999988 43.1526127,356.783092 43.3415228,358.984125 C43.3415228,358.984125 56.382684,511.810277 61.1119141,546.491298 C65.8411443,581.17232 91.7617199,587.823229 100.000001,587.823229 Z" id="Path-460-Copy" fill="url(#linearGradient-1)"></path>
                    <ellipse id="Oval-13-Copy" fill="#FFF8F0" cx="99.5" cy="4" rx="99.5" ry="4"></ellipse>
                </g>
                <rect id="plate" fill="#A3998C" x="0" y="643" width="460" height="26" rx="13"></rect>
                <path d="M175.355692,357.860588 C169.613553,356.041363 174.955312,344.310045 185.04236,342.679918 C193.0363,341.049791 192.298469,341.56338 204.432111,341.049791 C216.565753,340.536201 228.907338,336.367011 242.866867,338.708401 C256.826396,341.049791 283.189522,342.560772 286.129908,351.526471 C289.070295,360.49217 283.361898,358.352515 283.361898,358.352515 C283.361898,358.352515 179.274357,357.860588 175.355692,357.860588 Z" id="foam" fill="#FFFFFF"></path>
                <path d="M173,354.07441 C173,354.07441 211.168815,349.324767 229.976554,349.324767 C249.165473,349.324767 286.97154,354.965318 286.97154,354.965318 L286.32387,361.548279 L230.342451,358.957598 L173.953073,361.548279 L173,354.07441 Z" id="foam-2" fill="#FFF1D5"></path>
                <g id="Group-3" opacity="0.778451493" transform="translate(201.000000, 383.000000)" fill="url(#radialGradient-2)">
                    <path d="M10.5,154 C15.7467051,154 20,149.746705 20,144.5 C20,139.253295 15.7467051,135 10.5,135 C5.25329488,135 1,139.253295 1,144.5 C1,149.746705 5.25329488,154 10.5,154 Z" id="Oval-8"></path>
                    <path d="M12,69 C18.627417,69 24,63.627417 24,57 C24,50.372583 18.627417,45 12,45 C5.372583,45 0,50.372583 0,57 C0,63.627417 5.372583,69 12,69 Z" id="Oval-8-Copy-2"></path>
                    <path d="M57,100 C60.8659932,100 64,96.8659932 64,93 C64,89.1340068 60.8659932,86 57,86 C53.1340068,86 50,89.1340068 50,93 C50,96.8659932 53.1340068,100 57,100 Z" id="Oval-8-Copy"></path>
                    <path d="M54,180 C57.8659932,180 61,176.865993 61,173 C61,169.134007 57.8659932,166 54,166 C50.1340068,166 47,169.134007 47,173 C47,176.865993 50.1340068,180 54,180 Z" id="Oval-8-Copy-6"></path>
                    <path d="M47,14 C50.8659932,14 54,10.8659932 54,7 C54,3.13400675 50.8659932,0 47,0 C43.1340068,0 40,3.13400675 40,7 C40,10.8659932 43.1340068,14 47,14 Z" id="Oval-8-Copy-4"></path>
                </g>
            </g>
        </g>
    </g>
</svg>