<?xml version="1.0" encoding="UTF-8" standalone="no"?>
<svg width="460px" height="670px" viewBox="0 0 460 670" version="1.1" xmlns="http://www.w3.org/2000/svg" xmlns:xlink="http://www.w3.org/1999/xlink">
    <!-- Generator: Sketch 3.8.1 (29687) - http://www.bohemiancoding.com/sketch -->
    <title>beer-4</title>
    <desc>Created with Sketch.</desc>
    <defs>
        <linearGradient x1="50%" y1="0%" x2="50%" y2="96.8032526%" id="linearGradient-1">
            <stop stop-color="#FCE8BE" offset="0%"></stop>
            <stop stop-color="#FFDBA0" offset="100%"></stop>
        </linearGradient>
        <radialGradient cx="50%" cy="50%" fx="50%" fy="50%" r="58.3528646%" id="radialGradient-2">
            <stop stop-color="#FFFFFF" offset="0%"></stop>
            <stop stop-color="#FFFFFF" stop-opacity="0" offset="100%"></stop>
        </radialGradient>
    </defs>
    <g id="Page-1" stroke="none" stroke-width="1" fill="none" fill-rule="evenodd">
        <g id="beer-4" transform="translate(-490.000000, -276.000000)">
            <g transform="translate(490.000000, 276.000000)">
                <g id="Group-2-Copy" transform="translate(130.000000, 0.000000)">
                    <path d="M10.1443396,642.078526 C9.93194526,643.15375 10.6626969,644.025391 11.7624547,644.025391 L187.454342,644.025391 C188.560397,644.025391 189.437336,643.132691 189.320301,642.035063 C189.320301,642.035063 190.224609,629.037109 170.224609,629.037109 C150.224609,629.037109 120.000005,624 120,604 C119.999995,584 145,588 150,544 C155,500 200,4 200,4 L4.49074111e-12,4 C4.49074111e-12,4 44,500 50,544 C56,588 80,584 80,604 C80,624 50.0175781,628.673828 30,629 C10.9433594,629.400391 10.1443396,642.078526 10.1443396,642.078526 Z" id="Path-460" fill="#F1EAE3"></path>
                    <path d="M99.9999928,588.823229 C108.309438,588.823229 136.302285,582.114868 140.277353,547.134264 C144.252422,512.153661 188.760151,5 188.760151,5 L11.2398286,5 C11.2398286,5 56.0058998,512.153661 60.7759821,547.134264 C65.5460644,582.114868 91.6905475,588.823229 99.9999928,588.823229 Z" id="Path-460-Copy" stroke="#D1D1D1" stroke-linejoin="round" opacity="0.7"></path>
                    <path d="M100.000001,588.823229 C108.238282,588.823229 135.991392,582.17232 139.932417,547.491298 C143.873442,512.810277 166.662727,242.988785 166.662727,242.988785 C166.848994,240.785843 165.207057,239.000005 163.007837,239.000005 L36.992157,239.000005 C34.7873496,239.000005 33.1528954,240.788205 33.3412718,242.988785 C33.3412718,242.988785 56.382684,512.810277 61.1119141,547.491298 C65.8411443,582.17232 91.7617199,588.823229 100.000001,588.823229 Z" id="Path-460-Copy" fill="url(#linearGradient-1)"></path>
                    <ellipse id="Oval-13-Copy" fill="#FFF8F0" cx="100" cy="4" rx="100" ry="4"></ellipse>
                </g>
                <rect id="plate" fill="#A3998C" x="0" y="644" width="460" height="26" rx="13"></rect>
                <path d="M165.684842,238.308232 C158.933625,236.009429 165.214102,221.185543 177.073768,219.125688 C186.472501,217.065833 185.605009,217.714813 199.870922,217.065833 C214.136835,216.416853 228.647232,211.148596 245.059899,214.107215 C261.472566,217.065833 292.468539,218.975133 295.925646,230.304337 C299.382752,241.633541 292.671207,238.929838 292.671207,238.929838 C292.671207,238.929838 170.292142,238.308232 165.684842,238.308232 Z" id="foam" fill="#FFFFFF"></path>
                <path d="M163.01423,235.003402 C163.01423,235.003402 207.890532,229.563477 230.003394,229.563477 C252.564423,229.563477 297.01423,236.023789 297.01423,236.023789 L296.252743,243.563477 L230.433592,240.596282 L164.134788,243.563477 L163.01423,235.003402 Z" id="foam-2" fill="#FFF1D5"></path>
                <g id="Group-3" opacity="0.778451493" transform="translate(181.000000, 249.000000)" fill="url(#radialGradient-2)">
                    <path d="M30.5,248 C35.7467051,248 40,243.746705 40,238.5 C40,233.253295 35.7467051,229 30.5,229 C25.2532949,229 21,233.253295 21,238.5 C21,243.746705 25.2532949,248 30.5,248 Z" id="Oval-8-Copy-5"></path>
                    <path d="M12,64 C18.627417,64 24,58.627417 24,52 C24,45.372583 18.627417,40 12,40 C5.372583,40 0,45.372583 0,52 C0,58.627417 5.372583,64 12,64 Z" id="Oval-8-Copy-2"></path>
                    <path d="M96,24 C102.627417,24 108,18.627417 108,12 C108,5.372583 102.627417,0 96,0 C89.372583,0 84,5.372583 84,12 C84,18.627417 89.372583,24 96,24 Z" id="Oval-8-Copy-7"></path>
                    <path d="M77,95 C80.8659932,95 84,91.8659932 84,88 C84,84.1340068 80.8659932,81 77,81 C73.1340068,81 70,84.1340068 70,88 C70,91.8659932 73.1340068,95 77,95 Z" id="Oval-8-Copy"></path>
                    <path d="M74,315 C77.8659932,315 81,311.865993 81,308 C81,304.134007 77.8659932,301 74,301 C70.1340068,301 67,304.134007 67,308 C67,311.865993 70.1340068,315 74,315 Z" id="Oval-8-Copy-6"></path>
                    <path d="M67,149 C70.8659932,149 74,145.865993 74,142 C74,138.134007 70.8659932,135 67,135 C63.1340068,135 60,138.134007 60,142 C60,145.865993 63.1340068,149 67,149 Z" id="Oval-8-Copy-4"></path>
                </g>
            </g>
        </g>
    </g>
</svg>