<?xml version="1.0" encoding="UTF-8" standalone="no"?>
<svg width="460px" height="670px" viewBox="0 0 460 670" version="1.1" xmlns="http://www.w3.org/2000/svg" xmlns:xlink="http://www.w3.org/1999/xlink">
    <!-- Generator: Sketch 3.8.1 (29687) - http://www.bohemiancoding.com/sketch -->
    <title>beer-5</title>
    <desc>Created with Sketch.</desc>
    <defs>
        <linearGradient x1="50%" y1="0%" x2="50%" y2="96.8032526%" id="linearGradient-1">
            <stop stop-color="#FCE8BE" offset="0%"></stop>
            <stop stop-color="#FFDBA0" offset="100%"></stop>
        </linearGradient>
        <radialGradient cx="50%" cy="50%" fx="50%" fy="50%" r="58.3528646%" id="radialGradient-2">
            <stop stop-color="#FFFFFF" offset="0%"></stop>
            <stop stop-color="#FFFFFF" stop-opacity="0" offset="100%"></stop>
        </radialGradient>
    </defs>
    <g id="Page-1" stroke="none" stroke-width="1" fill="none" fill-rule="evenodd">
        <g id="beer-5" transform="translate(-490.000000, -276.000000)">
            <g transform="translate(490.000000, 276.000000)">
                <g id="Group-2-Copy" transform="translate(130.000000, 0.000000)">
                    <path d="M10.1443396,642.078526 C9.93194526,643.15375 10.6626969,644.025391 11.7624547,644.025391 L187.454342,644.025391 C188.560397,644.025391 189.437336,643.132691 189.320301,642.035063 C189.320301,642.035063 190.224609,629.037109 170.224609,629.037109 C150.224609,629.037109 120.000005,624 120,604 C119.999995,584 145,588 150,544 C155,500 200,4 200,4 L4.49074111e-12,4 C4.49074111e-12,4 44,500 50,544 C56,588 80,584 80,604 C80,624 50.0175781,628.673828 30,629 C10.9433594,629.400391 10.1443396,642.078526 10.1443396,642.078526 Z" id="Path-460" fill="#F1EAE3"></path>
                    <path d="M99.9999928,588.823229 C108.309438,588.823229 136.302285,582.114868 140.277353,547.134264 C144.252422,512.153661 188.760151,5 188.760151,5 L11.2398286,5 C11.2398286,5 56.0058998,512.153661 60.7759821,547.134264 C65.5460644,582.114868 91.6905475,588.823229 99.9999928,588.823229 Z" id="Path-460-Copy" stroke="#D1D1D1" stroke-linejoin="round" opacity="0.7"></path>
                    <path d="M100.000001,588.823229 C108.238282,588.823229 135.991392,582.17232 139.932417,547.491298 C143.873442,512.810277 177.651692,125.84857 177.651692,125.84857 C177.844057,123.646075 176.207658,121.860599 174.006785,121.860599 L25.9932145,121.860599 C23.787823,121.860599 22.157389,123.649016 22.3510811,125.84857 C22.3510811,125.84857 56.382684,512.810277 61.1119141,547.491298 C65.8411443,582.17232 91.7617199,588.823229 100.000001,588.823229 Z" id="Path-460-Copy" fill="url(#linearGradient-1)"></path>
                    <ellipse id="Oval-13-Copy" fill="#FFF8F0" cx="100" cy="4" rx="100" ry="4"></ellipse>
                </g>
                <rect id="plate" fill="#A3998C" x="0" y="644" width="460" height="26" rx="13"></rect>
                <path d="M152.084542,119.836775 C150.002232,116.600725 152.727826,99.4507737 166.800117,96.7509373 C177.952345,94.0511008 176.923007,94.9017137 193.850471,94.0511008 C210.777934,93.2004878 227.995496,86.2954243 247.470227,90.1732625 C266.944958,94.0511008 304.857753,97.7272904 307.825852,111.402708 C308.784825,115.821143 308.200012,121.098774 308.200012,121.098774 L303.964242,122.708086 C303.964242,122.708086 157.551413,119.836775 152.084542,119.836775 Z" id="foam" fill="#FFFFFF"></path>
                <path d="M151.771345,119.906115 C151.771345,119.906115 204.178081,114.126953 230.001576,114.126953 C256.348441,114.126953 308.257115,120.990134 308.257115,120.990134 L307.367847,129 C307.367847,129 274.215818,125.84777 230.503962,125.84777 C186.792106,125.84777 152.735491,129 152.735491,129 L151.771345,119.906115 Z" id="foam-2" fill="#FFF1D5"></path>
                <g id="Group-3" opacity="0.778451493" transform="translate(181.000000, 109.000000)" fill="url(#radialGradient-2)">
                    <path d="M30.5,149 C35.7467051,149 40,144.746705 40,139.5 C40,134.253295 35.7467051,130 30.5,130 C25.2532949,130 21,134.253295 21,139.5 C21,144.746705 25.2532949,149 30.5,149 Z" id="Oval-8"></path>
                    <path d="M30.5,338 C35.7467051,338 40,333.746705 40,328.5 C40,323.253295 35.7467051,319 30.5,319 C25.2532949,319 21,323.253295 21,328.5 C21,333.746705 25.2532949,338 30.5,338 Z" id="Oval-8-Copy-5"></path>
                    <path d="M12,64 C18.627417,64 24,58.627417 24,52 C24,45.372583 18.627417,40 12,40 C5.372583,40 0,45.372583 0,52 C0,58.627417 5.372583,64 12,64 Z" id="Oval-8-Copy-2"></path>
                    <path d="M96,24 C102.627417,24 108,18.627417 108,12 C108,5.372583 102.627417,0 96,0 C89.372583,0 84,5.372583 84,12 C84,18.627417 89.372583,24 96,24 Z" id="Oval-8-Copy-7"></path>
                    <path d="M77,95 C80.8659932,95 84,91.8659932 84,88 C84,84.1340068 80.8659932,81 77,81 C73.1340068,81 70,84.1340068 70,88 C70,91.8659932 73.1340068,95 77,95 Z" id="Oval-8-Copy"></path>
                    <path d="M74,445 C77.8659932,445 81,441.865993 81,438 C81,434.134007 77.8659932,431 74,431 C70.1340068,431 67,434.134007 67,438 C67,441.865993 70.1340068,445 74,445 Z" id="Oval-8-Copy-6"></path>
                    <path d="M15,218 C18.8659932,218 22,214.865993 22,211 C22,207.134007 18.8659932,204 15,204 C11.1340068,204 8,207.134007 8,211 C8,214.865993 11.1340068,218 15,218 Z" id="Oval-8-Copy-3"></path>
                    <path d="M67,279 C70.8659932,279 74,275.865993 74,272 C74,268.134007 70.8659932,265 67,265 C63.1340068,265 60,268.134007 60,272 C60,275.865993 63.1340068,279 67,279 Z" id="Oval-8-Copy-4"></path>
                </g>
            </g>
        </g>
    </g>
</svg>